<svg width="43" height="43" viewBox="0 0 43 43" fill="none" xmlns="http://www.w3.org/2000/svg">
<path d="M34.5884 8.15195L22.9304 0.873417C22.6131 0.673731 22.2379 0.566925 21.8538 0.566925C21.4697 0.566925 21.0945 0.673731 20.7772 0.873417L9.10645 8.15195L10.457 9.97452L11.6546 9.23373V20.5572C11.6546 20.8691 11.7889 21.1681 12.0278 21.3887C12.2668 21.6092 12.5908 21.7331 12.9287 21.7331H20.5733V15.8538H23.1215V21.7331H30.7661C31.104 21.7331 31.4281 21.6092 31.6671 21.3887C31.906 21.1681 32.0402 20.8691 32.0402 20.5572V9.23373L33.2379 9.97452L34.5884 8.15195ZM29.492 19.3813H25.6697V14.6779C25.6697 14.3661 25.5355 14.067 25.2966 13.8465C25.0576 13.626 24.7335 13.5021 24.3956 13.5021H19.2992C18.9613 13.5021 18.6373 13.626 18.3983 13.8465C18.1594 14.067 18.0251 14.3661 18.0251 14.6779V19.3813H14.2028V7.49347L21.8474 2.79006L29.492 7.49347V19.3813Z" fill="white"/>
<path d="M6.14006 29.829H7.3178V33.3857H11.7944V29.829H12.9721V38.4364H11.7944V34.4111H7.3178V38.4364H6.14006V29.829ZM17.1323 37.7568C17.8315 37.7568 18.31 37.4931 18.5678 36.9657C18.8295 36.4345 18.9604 35.8447 18.9604 35.1962C18.9604 34.6103 18.8666 34.1337 18.6791 33.7665C18.3823 33.1884 17.8705 32.8993 17.144 32.8993C16.4994 32.8993 16.0307 33.1454 15.7377 33.6376C15.4448 34.1298 15.2983 34.7236 15.2983 35.4189C15.2983 36.0868 15.4448 36.6435 15.7377 37.0888C16.0307 37.5341 16.4955 37.7568 17.1323 37.7568ZM17.1733 31.9794C17.9819 31.9794 18.6655 32.2489 19.224 32.788C19.7826 33.3271 20.0619 34.12 20.0619 35.1669C20.0619 36.1786 19.8158 37.0146 19.3237 37.6747C18.8315 38.3349 18.0678 38.665 17.0326 38.665C16.1694 38.665 15.4838 38.3739 14.976 37.7919C14.4682 37.206 14.2143 36.4208 14.2143 35.4364C14.2143 34.3818 14.4819 33.5419 15.017 32.9169C15.5522 32.2919 16.2709 31.9794 17.1733 31.9794ZM21.3217 32.1611H22.3647V33.0517C22.6147 32.7431 22.8412 32.5185 23.0444 32.3779C23.392 32.1396 23.7865 32.0204 24.228 32.0204C24.728 32.0204 25.1303 32.1435 25.435 32.3896C25.6069 32.5302 25.7631 32.7372 25.9037 33.0107C26.1381 32.6747 26.4135 32.4267 26.7299 32.2665C27.0463 32.1025 27.4018 32.0204 27.7963 32.0204C28.6401 32.0204 29.2143 32.3251 29.519 32.9345C29.683 33.2626 29.7651 33.704 29.7651 34.2587V38.4364H28.6694V34.0771C28.6694 33.6591 28.5639 33.372 28.353 33.2157C28.1459 33.0595 27.892 32.9814 27.5912 32.9814C27.1772 32.9814 26.8198 33.12 26.519 33.3974C26.2221 33.6747 26.0737 34.1376 26.0737 34.7861V38.4364H25.0014V34.3407C25.0014 33.915 24.9506 33.6044 24.849 33.4091C24.6889 33.1161 24.3901 32.9697 23.9526 32.9697C23.5541 32.9697 23.1908 33.1239 22.8627 33.4325C22.5385 33.7411 22.3764 34.2997 22.3764 35.1083V38.4364H21.3217V32.1611ZM33.9311 32.0204C34.3764 32.0204 34.808 32.1259 35.226 32.3368C35.644 32.5439 35.9623 32.8134 36.1811 33.1454C36.392 33.4618 36.5326 33.831 36.603 34.2529C36.6655 34.5419 36.6967 35.0029 36.6967 35.6357H32.0971C32.1166 36.2724 32.267 36.7841 32.5483 37.1708C32.8295 37.5536 33.2651 37.745 33.8549 37.745C34.4057 37.745 34.8451 37.5634 35.1733 37.2001C35.3608 36.9892 35.4936 36.745 35.5717 36.4677H36.6088C36.5815 36.6982 36.4897 36.956 36.3334 37.2411C36.1811 37.5224 36.0092 37.7529 35.8178 37.9325C35.4975 38.245 35.101 38.456 34.6283 38.5654C34.3744 38.6279 34.0873 38.6591 33.767 38.6591C32.9858 38.6591 32.3237 38.3759 31.7807 37.8095C31.2377 37.2392 30.9662 36.4423 30.9662 35.4189C30.9662 34.4111 31.2397 33.5927 31.7865 32.9638C32.3334 32.3349 33.0483 32.0204 33.9311 32.0204ZM35.6127 34.7978C35.5698 34.3407 35.4701 33.9755 35.3139 33.7021C35.0248 33.1943 34.5424 32.9404 33.8666 32.9404C33.3823 32.9404 32.976 33.1161 32.6479 33.4677C32.3198 33.8154 32.1459 34.2587 32.1264 34.7978H35.6127Z" fill="white"/>
</svg>
